<?xml version="1.0" encoding="UTF-8" standalone="no"?>
<svg
   xmlns:dc="http://purl.org/dc/elements/1.1/"
   xmlns:cc="http://creativecommons.org/ns#"
   xmlns:rdf="http://www.w3.org/1999/02/22-rdf-syntax-ns#"
   xmlns:svg="http://www.w3.org/2000/svg"
   xmlns="http://www.w3.org/2000/svg"
   xmlns:sodipodi="http://sodipodi.sourceforge.net/DTD/sodipodi-0.dtd"
   xmlns:inkscape="http://www.inkscape.org/namespaces/inkscape"
   inkscape:version="1.0 (4035a4fb49, 2020-05-01)"
   sodipodi:docname="logo.svg"
   version="1.1"
   viewBox="0 0 246.3 24.08"
   data-name="Layer 1"
   id="Layer_1">
  <metadata
     id="metadata120">
    <rdf:RDF>
      <cc:Work
         rdf:about="">
        <dc:format>image/svg+xml</dc:format>
        <dc:type
           rdf:resource="http://purl.org/dc/dcmitype/StillImage" />
        <dc:title></dc:title>
      </cc:Work>
    </rdf:RDF>
  </metadata>
  <sodipodi:namedview
     inkscape:current-layer="Layer_1"
     inkscape:window-maximized="1"
     inkscape:window-y="-8"
     inkscape:window-x="-8"
     inkscape:cy="12.04"
     inkscape:cx="123.15"
     inkscape:zoom="4.0727392"
     showgrid="false"
     id="namedview118"
     inkscape:window-height="1017"
     inkscape:window-width="1920"
     inkscape:pageshadow="2"
     inkscape:pageopacity="0"
     guidetolerance="10"
     gridtolerance="10"
     objecttolerance="10"
     borderopacity="1"
     bordercolor="#666666"
     pagecolor="#ffffff" />
  <defs
     id="defs68">
    <style
       id="style66">.cls-1{fill:#c1c1c1;}.cls-2{fill:#323e48;}.cls-3{fill:#1ed65f;}.cls-4{fill:#89ee46;}.cls-5{fill:#595959;}</style>
  </defs>
  <rect
     style="stroke-width:0.867814"
     height="13.885109"
     width="0.86781907"
     y="7.4432373"
     x="94.653442"
     class="cls-1"
     id="Separator" />
  <path
     style="stroke-width:0.867814"
     id="path71"
     d="M 5.6238638,9.6561742 A 5.4759372,5.4759372 0 0 0 4.5651242,9.7516419 4.4605888,4.4605888 0 0 0 3.801444,9.9599074 2.5513868,2.5513868 0 0 0 3.3154646,10.194222 0.98931363,0.98931363 0 0 0 3.0985092,10.350425 v 8.773651 H 1.71 V 9.7169186 L 2.0310924,9.4739374 A 4.0613934,4.0613934 0 0 1 2.8294864,9.0747328 7.714911,7.714911 0 0 1 4.0270768,8.675536 6.8904832,6.8904832 0 0 1 5.6498992,8.501972 6.7776663,6.7776663 0 0 1 7.2553638,8.6408234 2.2997204,2.2997204 0 0 1 8.0364004,8.9445592 0.65954243,0.65954243 0 0 1 8.3661732,9.5259999 0.867819,0.867819 0 0 1 8.2620334,9.942549 0.95460105,0.95460105 0 0 1 8.0364004,10.202902 3.341103,3.341103 0 0 0 7.1685824,9.8470881 5.0680626,5.0680626 0 0 0 5.6238638,9.6561742 Z"
     class="cls-2" />
  <path
     style="stroke-width:0.867814"
     id="path73"
     d="m 10.45762,14.741593 a 3.8444384,3.8444384 0 0 0 1.197586,2.603464 4.2349572,4.2349572 0 0 0 2.759668,0.824411 5.7709962,5.7709962 0 0 0 1.839786,-0.277704 6.465252,6.465252 0 0 0 1.19758,-0.520688 l 0.564068,1.032712 c -0.112804,0.06948 -0.28637,0.164888 -0.512004,0.277712 a 5.2936962,5.2936962 0 0 1 -0.867814,0.338438 9.5460105,9.5460105 0 0 1 -1.110812,0.269038 7.0814036,7.0814036 0 0 1 -1.32776,0.112806 6.2222626,6.2222626 0 0 1 -2.074092,-0.329774 4.7296136,4.7296136 0 0 1 -1.674886,-0.997994 4.6081188,4.6081188 0 0 1 -1.1281612,-1.631494 5.744962,5.744962 0 0 1 -0.4165592,-2.265014 6.1615146,6.1615146 0 0 1 0.4165592,-2.299714 5.380478,5.380478 0 0 1 1.1194772,-1.805066 4.8511086,4.8511086 0 0 1 1.73564,-1.1715566 5.3891558,5.3891558 0 0 1 2.117488,-0.4165531 4.6081188,4.6081188 0 0 1 3.245627,1.0240267 3.7229434,3.7229434 0 0 1 1.110817,2.872481 2.3865018,2.3865018 0 0 1 -0.598792,1.735648 2.603457,2.603457 0 0 1 -1.935242,0.616136 z m 5.068058,-1.110811 a 2.507997,2.507997 0 0 0 1.28437,-0.269018 c 0.30374,-0.18224 0.451264,-0.564088 0.451264,-1.154204 A 3.0807576,3.0807576 0 0 0 17.10511,11.235592 2.1782254,2.1782254 0 0 0 16.601764,10.36778 2.481962,2.481962 0 0 0 15.681883,9.7950261 3.9312198,3.9312198 0 0 0 14.284694,9.5693918 3.636162,3.636162 0 0 0 12.653194,9.9251966 3.8704726,3.8704726 0 0 0 11.455606,10.84508 4.1394968,4.1394968 0 0 0 10.71796,12.138134 4.7209351,4.7209351 0 0 0 10.431575,13.58739 Z"
     class="cls-2" />
  <path
     style="stroke-width:0.867814"
     id="path75"
     d="m 20.350756,10.6802 c -0.06945,-0.147526 -0.15621,-0.35581 -0.25167,-0.607474 a 1.8310988,1.8310988 0 0 1 -0.14753,-0.607468 0.72028972,0.72028972 0 0 1 0.16488,-0.485986 0.65954243,0.65954243 0 0 1 0.54673,-0.1995976 1.3537988,1.3537988 0 0 1 0.364486,0 l 0.182238,0.069427 c 0.303734,0.8678168 0.642191,1.6748886 0.997994,2.5166806 0.355816,0.841778 0.737646,1.666214 1.102132,2.447238 0.364476,0.781048 0.720292,1.518688 1.058742,2.20426 l 0.86782,1.857148 q 0.39051,-0.75501 0.911206,-1.848464 0.52069,-1.093454 1.041378,-2.291044 0.538058,-1.197592 1.041374,-2.395174 c 0.329778,-0.7984 0.62484,-1.5100088 0.86783,-2.1348299 a 1.058739,1.058739 0 0 1 0.20828,-0.3037455 0.68557701,0.68557701 0 0 1 0.503338,-0.1562074 0.91121012,0.91121012 0 0 1 0.512,0.1301726 2.265008,2.265008 0 0 1 0.277708,0.1995982 12.366422,12.366422 0 0 1 -0.451256,1.258339 c -0.199606,0.503333 -0.433912,1.050051 -0.685586,1.648851 -0.251666,0.598796 -0.546728,1.232308 -0.867816,1.883171 -0.32109,0.650863 -0.5988,1.284371 -0.893862,1.943913 -0.29504,0.659548 -0.607476,1.2323 -0.867812,1.805066 -0.260348,0.572758 -0.555404,1.076096 -0.798394,1.510002 h -1.562082 c -0.321088,-0.590112 -0.685569,-1.275696 -1.084776,-2.0654 -0.399186,-0.789722 -0.807072,-1.579442 -1.19758,-2.37783 -0.390522,-0.7984 -0.746336,-1.544723 -1.076104,-2.25633 -0.329768,-0.711624 -0.581426,-1.293054 -0.763668,-1.744316 z"
     class="cls-2" />
  <path
     style="stroke-width:0.867814"
     id="path77"
     d="m 32.6651,14.741593 a 3.8444384,3.8444384 0 0 0 1.206272,2.603464 4.1915656,4.1915656 0 0 0 2.750989,0.824411 5.8230658,5.8230658 0 0 0 1.848453,-0.277704 6.604103,6.604103 0 0 0 1.188902,-0.520688 l 0.564094,1.032712 a 4.5907628,4.5907628 0 0 1 -0.512018,0.277712 4.8597862,4.8597862 0 0 1 -0.867818,0.338438 9.9538895,9.9538895 0 0 1 -1.110806,0.269038 7.2115762,7.2115762 0 0 1 -1.327762,0.112806 6.18755,6.18755 0 0 1 -2.07409,-0.329774 4.6515104,4.6515104 0 0 1 -1.674888,-0.997994 4.7469712,4.7469712 0 0 1 -1.102137,-1.622816 5.744962,5.744962 0 0 1 -0.416545,-2.273692 6.3350776,6.3350776 0 0 1 0.407872,-2.299714 5.6668582,5.6668582 0 0 1 1.119482,-1.805066 4.9726028,4.9726028 0 0 1 1.735648,-1.1715566 5.3457652,5.3457652 0 0 1 2.10879,-0.4165531 4.5994408,4.5994408 0 0 1 3.245649,1.0240267 3.6969086,3.6969086 0 0 1 1.110809,2.872481 2.421216,2.421216 0 0 1 -0.590122,1.735648 2.603457,2.603457 0 0 1 -1.943912,0.616136 z m 5.068068,-1.110811 A 2.5166758,2.5166758 0 0 0 39.026215,13.361764 1.2583384,1.2583384 0 0 0 39.47748,12.20756 3.0894354,3.0894354 0 0 0 39.277886,11.235592 2.1608696,2.1608696 0 0 0 38.783224,10.36778 2.4559292,2.4559292 0 0 0 37.854658,9.7950261 3.8444384,3.8444384 0 0 0 36.466156,9.5693918 3.6101272,3.6101272 0 0 0 34.834648,9.9251966 3.8704726,3.8704726 0 0 0 33.637066,10.84508 a 4.3390948,4.3390948 0 0 0 -0.74633,1.293054 4.4692682,4.4692682 0 0 0 -0.277698,1.449256 z"
     class="cls-2" />
  <path
     style="stroke-width:0.867814"
     id="path79"
     d="m 50.950054,19.150108 v -5.736282 a 3.8617948,3.8617948 0 0 0 -0.867822,-2.707592 3.6621962,3.6621962 0 0 0 -2.82042,-0.9545924 8.981925,8.981925 0 0 0 -1.13684,0.069433 C 45.777848,9.8731516 45.482788,9.93391 45.257158,9.9946509 a 2.9419056,2.9419056 0 0 0 -0.59011,0.1909181 l -0.286388,0.112807 v 8.851748 H 42.974794 V 9.3350764 l 0.407878,-0.1562046 a 6.3871484,6.3871484 0 0 1 0.928562,-0.286384 q 0.590122,-0.138851 1.37983,-0.260346 a 12.270948,12.270948 0 0 1 1.735639,-0.1128168 6.2830092,6.2830092 0 0 1 2.056731,0.3124151 4.5473712,4.5473712 0 0 1 1.527354,0.8678165 3.957254,3.957254 0 0 1 0.963289,1.3364474 4.3390948,4.3390948 0 0 1 0.329773,1.735634 v 6.404494 z"
     class="cls-2" />
  <path
     style="stroke-width:0.867814"
     id="path81"
     d="m 56.304492,14.776312 a 3.7663346,3.7663346 0 0 0 1.206276,2.603448 4.148175,4.148175 0 0 0 2.750984,0.867814 5.4932956,5.4932956 0 0 0 1.839774,-0.286378 6.5607124,6.5607124 0 0 0 1.197586,-0.51201 l 0.564082,1.024028 c -0.112806,0.06942 -0.277694,0.164886 -0.51201,0.286379 a 5.2069142,5.2069142 0 0 1 -0.867819,0.329771 8.29635,8.29635 0 0 1 -1.110807,0.2777 7.2376104,7.2376104 0 0 1 -1.26702,0.121508 6.1788714,6.1788714 0 0 1 -2.065408,-0.338464 4.6254756,4.6254756 0 0 1 -1.683564,-0.98931 4.8944988,4.8944988 0 0 1 -1.128168,-1.631498 5.744962,5.744962 0 0 1 -0.416556,-2.273684 6.3871484,6.3871484 0 0 1 0.407878,-2.308404 5.4238686,5.4238686 0 0 1 1.11949,-1.796388 4.9726028,4.9726028 0 0 1 1.735626,-1.171552 5.3197304,5.3197304 0 0 1 2.030702,-0.4599436 4.6081188,4.6081188 0 0 1 3.245646,1.0240288 3.7229434,3.7229434 0 0 1 1.093454,2.8638028 2.4298932,2.4298932 0 0 1 -0.598802,1.735628 2.603457,2.603457 0 0 1 -1.935232,0.616156 z M 61.372558,13.6655 a 2.481962,2.481962 0 0 0 1.284376,-0.251674 c 0.303732,-0.182238 0.451262,-0.564094 0.451262,-1.154196 a 3.0373664,3.0373664 0 0 0 -0.1562,-0.97196 2.0740876,2.0740876 0 0 0 -0.503351,-0.824426 2.4298932,2.4298932 0 0 0 -0.919879,-0.58144 3.8878292,3.8878292 0 0 0 -1.38851,-0.2169518 3.6795533,3.6795533 0 0 0 -1.640178,0.3558058 3.8010472,3.8010472 0 0 0 -1.188916,0.91989 4.1221402,4.1221402 0 0 0 -0.746322,1.284376 4.564728,4.564728 0 0 0 -0.277706,1.457928 z"
     class="cls-2" />
  <path
     style="stroke-width:0.867814"
     id="path83"
     d="m 70.71897,9.6908862 a 5.6495018,5.6495018 0 0 0 -1.06742,0.086761 6.0747328,6.0747328 0 0 0 -0.76368,0.2169596 2.2389734,2.2389734 0 0 0 -0.477301,0.2256262 1.6054646,1.6054646 0 0 0 -0.216953,0.156212 V 19.15007 H 66.805092 V 9.7516376 l 0.32978,-0.2429996 a 4.0613934,4.0613934 0 0 1 0.781038,-0.4339108 7.2896794,7.2896794 0 0 1 1.188916,-0.3991958 6.5086428,6.5086428 0 0 1 1.622822,-0.173564 7.4719216,7.4719216 0 0 1 1.614144,0.1301728 2.4298932,2.4298932 0 0 1 0.772359,0.3037366 0.65954243,0.65954243 0 0 1 0.338445,0.5901175 0.867819,0.867819 0 0 1 -0.104138,0.4165487 0.79839352,0.79839352 0 0 1 -0.208272,0.269023 4.3390948,4.3390948 0 0 0 -0.867825,-0.3558006 5.4151906,5.4151906 0 0 0 -1.553391,-0.164883 z"
     class="cls-2" />
  <path
     style="stroke-width:0.867814"
     id="path85"
     d="m 78.381811,9.6648522 a 4.6167968,4.6167968 0 0 0 -1.857127,0.3037242 3.9485764,3.9485764 0 0 0 -0.928568,0.5554136 0.867819,0.867819 0 0 1 -0.260348,-0.303734 0.867819,0.867819 0 0 1 -0.121494,-0.4252299 0.6768989,0.6768989 0 0 1 0.121494,-0.3991973 1.1194864,1.1194864 0 0 1 0.277696,-0.2950592 2.9332284,2.9332284 0 0 1 0.867822,-0.373164 6.1788714,6.1788714 0 0 1 1.848456,-0.2082772 5.9532384,5.9532384 0 0 1 3.792372,1.0240288 4.0006452,4.0006452 0 0 1 1.27569,3.3063748 v 6.25699 c -0.407874,0.0781 -0.945912,0.14753 -1.6315,0.225634 a 25.375028,25.375028 0 0 1 -2.72495,0.112814 8.5480172,8.5480172 0 0 1 -2.60346,-0.312414 3.7316215,3.7316215 0 0 1 -1.449258,-0.798388 2.1695478,2.1695478 0 0 1 -0.650868,-1.076098 5.0246724,5.0246724 0 0 1 -0.147522,-1.162886 4.1915656,4.1915656 0 0 1 0.216958,-1.33644 2.603457,2.603457 0 0 1 0.754998,-1.10214 3.8531168,3.8531168 0 0 1 1.431902,-0.737632 8.400488,8.400488 0 0 1 2.27369,-0.260348 h 0.93724 l 0.867816,0.04341 h 0.755006 0.52069 v 0 A 2.9939754,2.9939754 0 0 0 81.080726,10.41117 4.0006452,4.0006452 0 0 0 78.381811,9.6648384 Z m 3.618809,4.3390838 -0.41656,-0.05206 -0.737646,-0.06064 -0.911206,-0.05204 c -0.321096,0 -0.633512,0 -0.928568,0 a 5.2069142,5.2069142 0 0 0 -2.490636,0.503336 1.8484546,1.8484546 0 0 0 -0.919888,1.796383 1.9699496,1.9699496 0 0 0 0.755,1.614143 4.6428314,4.6428314 0 0 0 2.698914,0.572757 14.692164,14.692164 0 0 0 2.030696,-0.104137 6.2049068,6.2049068 0 0 0 0.919894,-0.190921 z"
     class="cls-2" />
  <path
     style="stroke-width:0.867814"
     id="path87"
     d="m 85.402476,17.75292 h -0.459962 v 1.371156 h -0.20827 V 17.75292 h -0.468608 v -0.190928 h 1.13684 z"
     class="cls-2" />
  <path
     style="stroke-width:0.867814"
     id="path89"
     d="m 87.25092,19.150108 h -0.242984 v -1.293044 l -0.503348,1.293044 H 86.357057 L 85.845052,17.84838 v 1.301728 h -0.199598 v -1.56207 h 0.312416 l 0.477298,1.232302 0.468628,-1.232302 h 0.312425 z"
     class="cls-2" />
  <path
     style="stroke-width:0.867814"
     id="path91"
     d="m 54.60357,3 a 8.67819,8.67819 0 0 0 -0.867814,3.7402998 v 3.8444322 0.06065 A 7.0206554,7.0206554 0 0 1 57.32852,7.3390244 7.4806004,7.4806004 0 0 1 60.270427,6.7489071 h 0.156205 A 7.8103712,7.8103712 0 0 0 54.60357,3 Z"
     class="cls-3" />
  <path
     style="stroke-width:0.867814"
     id="path93"
     d="m 52.885294,3 a 8.5740518,8.5740518 0 0 1 0.867812,3.7402998 v 3.8444322 a 0.55540428,0.55540428 0 0 0 0,0.06064 A 7.3157142,7.3157142 0 0 0 52.55552,8.9618981 7.0206554,7.0206554 0 0 0 50.160332,7.3390774 7.4111744,7.4111744 0 0 0 47.22711,6.7489606 H 47.088264 A 7.8103712,7.8103712 0 0 1 52.885294,3 Z"
     class="cls-4" />
  <path
     style="stroke-width:0.867814"
     id="path95"
     d="m 106.4991,15.956538 v -2.777014 c 0,-2.724959 1.3279,-4.113469 3.90522,-4.113469 2.37786,0 3.68824,1.188909 3.80104,3.471273 h -0.8678 c -0.11284,-1.735634 -1.09342,-2.6034484 -2.92456,-2.6034484 -2.03072,0 -3.0113,1.0760944 -3.0113,3.3410944 v 2.655542 c 0,2.265 0.98058,3.341086 3.0113,3.341086 1.81376,0 2.81172,-0.867814 2.92456,-2.603454 h 0.8678 c -0.1128,2.247652 -1.42318,3.47128 -3.80104,3.47128 -2.5687,-0.06942 -3.90522,-1.457928 -3.90522,-4.18289 z"
     class="cls-5" />
  <path
     style="stroke-width:0.867814"
     id="path97"
     d="m 116.43572,15.93918 v -2.742316 c 0,-2.70758 1.40582,-4.130809 4.04396,-4.130809 2.63808,0 4.04404,1.423229 4.04404,4.130809 v 2.742316 c 0,2.707592 -1.40596,4.130822 -4.04404,4.130822 -2.63814,0 -4.04396,-1.449258 -4.04396,-4.130822 z m 7.20286,-0.04338 v -2.65552 c 0,-2.265008 -1.03282,-3.3411054 -3.14146,-3.3411054 -2.10885,0 -3.11554,1.0760974 -3.11554,3.3411054 v 2.65552 c 0,2.26501 1.03276,3.341106 3.1589,3.341106 2.12614,0 3.0981,-1.076096 3.0981,-3.341106 z"
     class="cls-5" />
  <path
     style="stroke-width:0.867814"
     id="path99"
     d="m 127.29212,9.2569722 h 3.51462 c 2.73362,0 4.00062,1.2757018 4.00062,4.0787438 v 2.464612 c 0,2.811732 -1.267,4.078752 -4.00062,4.078752 h -3.51462 z m 3.47126,9.7976738 c 2.23026,0 3.18492,-0.954598 3.18492,-3.271666 v -2.429896 c 0,-2.317076 -0.95466,-3.271668 -3.18492,-3.271668 h -2.55144 v 8.97323 z"
     class="cls-5" />
  <path
     style="stroke-width:0.867814"
     id="path101"
     d="m 137.54965,9.2569722 h 6.81245 v 0.8244438 h -5.9185 v 3.92252 h 5.13738 v 0.867824 h -5.13738 v 4.182886 h 6.0747 v 0.824434 h -6.94258 z"
     class="cls-5" />
  <path
     style="stroke-width:0.867814"
     id="path103"
     d="m 151.17445,9.2569722 h 0.86787 V 19.87908 h -0.86787 z"
     class="cls-5" />
  <path
     style="stroke-width:0.867814"
     id="path105"
     d="m 155.31396,9.2569722 h 1.1195 l 5.7623,9.0339938 V 9.2569722 h 0.8679 V 19.87908 h -0.8679 l -5.9793,-9.372448 v 9.372448 h -0.86776 z"
     class="cls-5" />
  <path
     style="stroke-width:0.867814"
     id="path107"
     d="m 165.35466,17.067356 h 0.86778 c 0,1.423213 1.01536,2.169538 2.91586,2.169538 1.90054,0 2.75102,-0.70293 2.75102,-2.091442 0,-1.38852 -0.79844,-1.987302 -2.99403,-2.282368 -2.43855,-0.329768 -3.36706,-1.093451 -3.36706,-2.829088 0,-1.917884 1.28435,-2.967941 3.61007,-2.967941 2.32582,0 3.47132,0.997987 3.47132,2.924549 h -0.86784 c 0,-1.405872 -0.86776,-2.0914411 -2.60348,-2.0914411 -1.73564,0 -2.70752,0.7029371 -2.70752,2.0306991 0,1.327757 0.76364,1.839771 2.82902,2.108798 2.60348,0.329768 3.53196,1.171548 3.53196,3.028696 0,1.857122 -1.24968,3.002646 -3.67084,3.002646 -2.42122,0 -3.76626,-1.050064 -3.76626,-3.002646 z"
     class="cls-5" />
  <path
     style="stroke-width:0.867814"
     id="path109"
     d="m 175.13496,9.2569722 h 0.8678 V 19.87908 h -0.8678 z"
     class="cls-5" />
  <path
     style="stroke-width:0.867814"
     id="path111"
     d="m 178.7885,16.01728 v -2.933222 c 0,-2.534034 1.44066,-4.018003 3.96592,-4.018003 2.2997,0 3.70562,1.223627 3.80104,3.393169 h -0.8679 c -0.0954,-1.622818 -1.11075,-2.6034536 -2.93314,-2.6034536 -2.00462,0 -3.06342,1.1368396 -3.06342,3.2629936 v 2.898516 c 0,2.186916 1.0588,3.263006 3.14156,3.263006 2.08272,0 2.968,-1.01535 2.968,-3.150184 v -0.781038 h -2.6036 V 14.48124 h 3.47132 v 1.622828 c 0,2.603454 -1.31038,3.974606 -3.8531,3.974606 -2.54275,0 -4.02668,-1.414538 -4.02668,-4.061394 z"
     class="cls-5" />
  <path
     style="stroke-width:0.867814"
     id="path113"
     d="m 189.41057,9.2569722 h 0.86783 v 4.7469638 h 5.9966 V 9.2569722 h 0.86776 V 19.87908 H 196.275 v -5.042026 h -5.9966 v 5.042026 h -0.86783 z"
     class="cls-5" />
  <path
     style="stroke-width:0.867814"
     id="path115"
     d="m 202.33238,10.081416 h -3.3758 V 9.2569722 H 206.55 v 0.8244438 h -3.35835 v 9.797664 h -0.86791 z"
     class="cls-5" />
</svg>
